<?xml version="1.0" encoding="UTF-8" standalone="no"?>
<svg width="78px" height="78px" viewBox="0 0 78 78" version="1.1" xmlns="http://www.w3.org/2000/svg" xmlns:xlink="http://www.w3.org/1999/xlink">
    <!-- Generator: Sketch 39.1 (31720) - http://www.bohemiancoding.com/sketch -->
    <title>Group 10</title>
    <desc>Created with Sketch.</desc>
    <defs>
        <path d="M29.9805743,59.7496684 C46.4189794,59.7496684 59.7449397,46.4237081 59.7449397,29.985303 C59.7449397,13.5468979 46.4189794,0.220937548 29.9805743,0.220937548 C13.5421691,0.220937548 0.216208811,13.5468979 0.216208811,29.985303 C0.216208811,46.4237081 13.5421691,59.7496684 29.9805743,59.7496684 Z" id="path-1"></path>
        <filter x="-50%" y="-50%" width="200%" height="200%" filterUnits="objectBoundingBox" id="filter-2">
            <feMorphology radius="0.5" operator="dilate" in="SourceAlpha" result="shadowSpreadOuter1"></feMorphology>
            <feOffset dx="0" dy="3" in="shadowSpreadOuter1" result="shadowOffsetOuter1"></feOffset>
            <feGaussianBlur stdDeviation="4" in="shadowOffsetOuter1" result="shadowBlurOuter1"></feGaussianBlur>
            <feColorMatrix values="0 0 0 0 0.0607461735   0 0 0 0 0.0607461735   0 0 0 0 0.0607461735  0 0 0 0.404013813 0" type="matrix" in="shadowBlurOuter1"></feColorMatrix>
        </filter>
    </defs>
    <g id="产品" stroke="none" stroke-width="1" fill="none" fill-rule="evenodd">
        <g id="产品介绍-1号" transform="translate(-1164.000000, -2116.000000)">
            <g id="Group-10" transform="translate(1173.000000, 2122.000000)">
                <g id="Group-7">
                    <g id="Group-9">
                        <g id="Oval-67-Copy">
                            <use fill="black" fill-opacity="1" filter="url(#filter-2)" xlink:href="#path-1"></use>
                            <use fill="#0AAAB8" fill-rule="evenodd" xlink:href="#path-1"></use>
                        </g>
                        <path d="M41.4717597,29.3014273 L30.2274385,18.0570878 C29.9628142,17.7924631 29.5658779,17.7924631 29.3014087,18.0570878 L18.0570874,29.3014273 C17.7924632,29.5658969 17.7924632,29.9628339 18.0570874,30.2274586 C18.3215567,30.491967 18.7185318,30.491967 18.983001,30.2274586 L29.1029405,20.1075027 L29.1029405,41.008705 C29.1029405,41.405642 29.3675647,41.6701116 29.7643461,41.6701116 C30.1612824,41.6701116 30.4257904,41.405642 30.4257904,41.008705 L30.4257904,20.1075027 L40.5457299,30.2274586 C40.678042,30.3596547 40.8765102,30.4258109 41.0086673,30.4258109 C41.1409794,30.4258109 41.3394476,30.3596547 41.4717597,30.2274586 C41.7362289,29.9628339 41.7362289,29.5658969 41.4717597,29.3014273 L41.4717597,29.3014273 Z" id="iconfont-xiangshang-2-copy" fill="#FFFFFF"></path>
                    </g>
                </g>
            </g>
        </g>
    </g>
</svg>